<svg xmlns="http://www.w3.org/2000/svg" xmlns:xlink="http://www.w3.org/1999/xlink" version="1.1" x="0px" y="0px" viewBox="0 0 64 80" style="enable-background:new 0 0 64 64;" xml:space="preserve"><g><rect x="5" y="5" width="2" height="2"/><rect x="9" y="5" width="2" height="2"/><rect x="13" y="5" width="2" height="2"/><path d="M63,47V1H1v46h12V29h2v24h-2v-3.87h-2V60c0,1.654,1.346,3,3,3h4c1.654,0,3-1.346,3-3V47h6v7.5l0.4,0.3   C27.574,54.931,31.75,58,39,58s11.426-3.069,11.6-3.2l0.4-0.3v-8.634l2.628-1.502c0.542-0.309,0.931-0.801,1.156-1.364H56   c0.551,0,1,0.448,1,1v7h-0.754l-2.207,7.726L54,59c0,2.206,1.794,4,4,4s4-1.794,4-4l-2.246-8H59v-4H63z M59.996,59.126   C59.931,60.171,59.061,61,58,61s-1.931-0.829-1.996-1.874L57.754,53h0.491L59.996,59.126z M61,3v6H3V3H61z M11,31H7V15h20v16h-6   v-3.236l-5-10l-5,10V31z M18.382,27h-4.764L16,22.236L18.382,27z M18,61h-4c-0.551,0-1-0.448-1-1v-5h6v5C19,60.552,18.551,61,18,61   z M49,53.461C47.858,54.157,44.333,56,39,56c-5.335,0-8.861-1.844-10-2.539v-6.452l7.636,4.363C37.354,51.783,38.172,52,39,52   s1.646-0.217,2.364-0.628L49,47.009V53.461z M40.372,49.636c-0.834,0.477-1.91,0.477-2.744,0l-12.264-7.008   C25.14,42.499,25,42.259,25,42s0.14-0.499,0.364-0.628l12.264-7.008C38.045,34.126,38.52,34,39,34s0.955,0.126,1.372,0.364   L51.985,41H39v2h12.985L40.372,49.636z M56,41h-1.216c-0.225-0.563-0.615-1.055-1.156-1.364l-12.264-7.008   c-1.437-0.822-3.292-0.822-4.729,0l-12.264,7.008C23.526,40.119,23,41.025,23,42s0.526,1.881,1.372,2.364L25.485,45H21V35h-2v18h-2   V29h2l0.002,4H29V13H5v20h6v12H3V11h58v34h-2v-1C59,42.346,57.654,41,56,41z"/></g><text x="0" y="79" fill="#000000" font-size="5px" font-weight="bold" font-family="'Helvetica Neue', Helvetica, Arial-Unicode, Arial, Sans-serif">Created by Eucalyp</text><text x="0" y="84" fill="#000000" font-size="5px" font-weight="bold" font-family="'Helvetica Neue', Helvetica, Arial-Unicode, Arial, Sans-serif">from the Noun Project</text></svg>